<svg width="337" height="53" viewBox="0 0 337 53" fill="none" xmlns="http://www.w3.org/2000/svg">
<rect width="337" height="53" rx="13" fill="#121212"/>
<rect x="12" y="12" width="129" height="29" rx="7" fill="#0A0A0A"/>
<rect x="206" y="12" width="119" height="29" rx="7" fill="#2A9147"/>
<path d="M236.575 25.1293H235.024C234.964 24.7978 234.853 24.5062 234.691 24.2543C234.529 24.0024 234.33 23.7886 234.094 23.6129C233.859 23.4373 233.596 23.3047 233.304 23.2152C233.016 23.1257 232.709 23.081 232.384 23.081C231.798 23.081 231.272 23.2285 230.808 23.5234C230.348 23.8184 229.983 24.2509 229.714 24.821C229.449 25.3911 229.317 26.0871 229.317 26.9091C229.317 27.7377 229.449 28.437 229.714 29.0071C229.983 29.5772 230.349 30.008 230.813 30.2997C231.277 30.5914 231.799 30.7372 232.379 30.7372C232.701 30.7372 233.006 30.6941 233.294 30.608C233.586 30.5185 233.849 30.3875 234.085 30.2152C234.32 30.0429 234.519 29.8324 234.681 29.5838C234.847 29.3319 234.961 29.0436 235.024 28.7188L236.575 28.7237C236.492 29.2242 236.332 29.6849 236.093 30.1058C235.858 30.5234 235.554 30.8847 235.183 31.1896C234.815 31.4912 234.394 31.7249 233.92 31.8906C233.446 32.0563 232.929 32.1392 232.369 32.1392C231.488 32.1392 230.702 31.9304 230.013 31.5128C229.323 31.0919 228.78 30.4903 228.382 29.7081C227.988 28.9259 227.79 27.9929 227.79 26.9091C227.79 25.822 227.989 24.889 228.387 24.1101C228.785 23.3279 229.328 22.728 230.018 22.3104C230.707 21.8894 231.491 21.679 232.369 21.679C232.91 21.679 233.413 21.7569 233.881 21.9126C234.351 22.0651 234.774 22.2905 235.148 22.5888C235.523 22.8838 235.833 23.245 236.078 23.6726C236.323 24.0968 236.489 24.5824 236.575 25.1293ZM238.294 32V24.3636H239.731V25.5767H239.811C239.95 25.1657 240.195 24.8426 240.546 24.6072C240.901 24.3686 241.302 24.2493 241.749 24.2493C241.842 24.2493 241.952 24.2526 242.078 24.2592C242.207 24.2659 242.308 24.2741 242.381 24.2841V25.706C242.321 25.6894 242.215 25.6712 242.063 25.6513C241.91 25.6281 241.758 25.6165 241.605 25.6165C241.254 25.6165 240.941 25.6911 240.666 25.8402C240.394 25.986 240.178 26.1899 240.019 26.4517C239.86 26.7102 239.781 27.0052 239.781 27.3366V32H238.294ZM246.685 32.1541C245.933 32.1541 245.285 31.9934 244.741 31.6719C244.201 31.3471 243.783 30.8913 243.488 30.3047C243.197 29.7147 243.051 29.0237 243.051 28.2315C243.051 27.4493 243.197 26.7599 243.488 26.1634C243.783 25.5668 244.194 25.1011 244.721 24.7663C245.252 24.4316 245.871 24.2642 246.581 24.2642C247.011 24.2642 247.429 24.3355 247.833 24.478C248.238 24.6205 248.601 24.8442 248.922 25.1491C249.244 25.4541 249.497 25.8501 249.683 26.3374C249.868 26.8213 249.961 27.4096 249.961 28.1023V28.6293H243.891V27.5156H248.505C248.505 27.1245 248.425 26.7782 248.266 26.4766C248.107 26.1716 247.883 25.9313 247.595 25.7557C247.31 25.58 246.975 25.4922 246.591 25.4922C246.173 25.4922 245.808 25.5949 245.497 25.8004C245.189 26.0026 244.95 26.2678 244.781 26.5959C244.615 26.9207 244.532 27.2737 244.532 27.6548V28.5249C244.532 29.0353 244.622 29.4695 244.801 29.8274C244.983 30.1854 245.237 30.4588 245.561 30.6477C245.886 30.8333 246.266 30.9261 246.7 30.9261C246.982 30.9261 247.239 30.8864 247.471 30.8068C247.703 30.724 247.903 30.6013 248.072 30.4389C248.241 30.2765 248.37 30.076 248.46 29.8374L249.867 30.0909C249.754 30.5052 249.552 30.8681 249.26 31.1797C248.972 31.4879 248.609 31.7282 248.172 31.9006C247.737 32.0696 247.242 32.1541 246.685 32.1541ZM253.833 32.169C253.349 32.169 252.912 32.0795 252.52 31.9006C252.129 31.7183 251.819 31.4548 251.591 31.1101C251.365 30.7654 251.253 30.3428 251.253 29.8423C251.253 29.4115 251.336 29.0568 251.501 28.7784C251.667 28.5 251.891 28.2796 252.172 28.1172C252.454 27.9548 252.769 27.8321 253.117 27.7493C253.465 27.6664 253.82 27.6035 254.181 27.5604C254.638 27.5073 255.01 27.4643 255.295 27.4311C255.58 27.3946 255.787 27.3366 255.916 27.2571C256.045 27.1776 256.11 27.0483 256.11 26.8693V26.8345C256.11 26.4003 255.987 26.0639 255.742 25.8253C255.5 25.5866 255.139 25.4673 254.658 25.4673C254.158 25.4673 253.763 25.5784 253.475 25.8004C253.19 26.0192 252.993 26.2628 252.883 26.5312L251.486 26.2131C251.652 25.7491 251.894 25.3745 252.212 25.0895C252.534 24.8011 252.903 24.5923 253.321 24.4631C253.738 24.3305 254.178 24.2642 254.638 24.2642C254.943 24.2642 255.266 24.3007 255.608 24.3736C255.952 24.4432 256.274 24.5724 256.572 24.7614C256.874 24.9503 257.121 25.2204 257.313 25.5717C257.505 25.9197 257.601 26.3722 257.601 26.929V32H256.15V30.956H256.09C255.994 31.1482 255.85 31.3371 255.657 31.5227C255.465 31.7083 255.218 31.8625 254.917 31.9851C254.615 32.1077 254.254 32.169 253.833 32.169ZM254.156 30.9759C254.567 30.9759 254.918 30.8946 255.21 30.7322C255.505 30.5698 255.729 30.3577 255.881 30.0959C256.037 29.8307 256.115 29.5473 256.115 29.2457V28.2614C256.062 28.3144 255.959 28.3641 255.807 28.4105C255.657 28.4536 255.487 28.4917 255.295 28.5249C255.102 28.5547 254.915 28.5829 254.733 28.6094C254.55 28.6326 254.398 28.6525 254.275 28.669C253.987 28.7055 253.724 28.7668 253.485 28.853C253.25 28.9392 253.061 29.0634 252.918 29.2259C252.779 29.3849 252.709 29.5971 252.709 29.8622C252.709 30.2301 252.845 30.5085 253.117 30.6974C253.389 30.883 253.735 30.9759 254.156 30.9759ZM263.146 24.3636V25.5568H258.975V24.3636H263.146ZM260.093 22.5341H261.58V29.7578C261.58 30.0462 261.623 30.2633 261.709 30.4091C261.795 30.5516 261.906 30.6494 262.042 30.7024C262.181 30.7521 262.332 30.777 262.495 30.777C262.614 30.777 262.718 30.7687 262.808 30.7521C262.897 30.7356 262.967 30.7223 263.017 30.7124L263.285 31.9403C263.199 31.9735 263.076 32.0066 262.917 32.0398C262.758 32.0762 262.559 32.0961 262.321 32.0994C261.93 32.1061 261.565 32.0365 261.227 31.8906C260.889 31.7448 260.615 31.5194 260.407 31.2145C260.198 30.9096 260.093 30.5268 260.093 30.0661V22.5341ZM267.999 32.1541C267.247 32.1541 266.599 31.9934 266.056 31.6719C265.515 31.3471 265.098 30.8913 264.803 30.3047C264.511 29.7147 264.365 29.0237 264.365 28.2315C264.365 27.4493 264.511 26.7599 264.803 26.1634C265.098 25.5668 265.509 25.1011 266.036 24.7663C266.566 24.4316 267.186 24.2642 267.895 24.2642C268.326 24.2642 268.744 24.3355 269.148 24.478C269.552 24.6205 269.915 24.8442 270.237 25.1491C270.558 25.4541 270.812 25.8501 270.997 26.3374C271.183 26.8213 271.276 27.4096 271.276 28.1023V28.6293H265.205V27.5156H269.819C269.819 27.1245 269.74 26.7782 269.58 26.4766C269.421 26.1716 269.198 25.9313 268.909 25.7557C268.624 25.58 268.289 25.4922 267.905 25.4922C267.487 25.4922 267.123 25.5949 266.811 25.8004C266.503 26.0026 266.264 26.2678 266.095 26.5959C265.93 26.9207 265.847 27.2737 265.847 27.6548V28.5249C265.847 29.0353 265.936 29.4695 266.115 29.8274C266.298 30.1854 266.551 30.4588 266.876 30.6477C267.201 30.8333 267.58 30.9261 268.014 30.9261C268.296 30.9261 268.553 30.8864 268.785 30.8068C269.017 30.724 269.218 30.6013 269.387 30.4389C269.556 30.2765 269.685 30.076 269.774 29.8374L271.181 30.0909C271.069 30.5052 270.866 30.8681 270.575 31.1797C270.286 31.4879 269.923 31.7282 269.486 31.9006C269.052 32.0696 268.556 32.1541 267.999 32.1541ZM280.264 24.3636V25.5568H275.949V24.3636H280.264ZM277.132 32V23.4787C277.132 23.0014 277.237 22.6053 277.445 22.2905C277.654 21.9723 277.931 21.7353 278.276 21.5795C278.62 21.4205 278.995 21.3409 279.399 21.3409C279.698 21.3409 279.953 21.3658 280.165 21.4155C280.377 21.4619 280.535 21.505 280.637 21.5447L280.289 22.7479C280.22 22.728 280.13 22.7048 280.021 22.6783C279.911 22.6484 279.779 22.6335 279.623 22.6335C279.262 22.6335 279.003 22.723 278.847 22.902C278.695 23.081 278.619 23.3395 278.619 23.6776V32H277.132ZM284.714 32.1541C283.998 32.1541 283.373 31.9901 282.84 31.6619C282.306 31.3338 281.892 30.8748 281.597 30.2848C281.302 29.6948 281.154 29.0054 281.154 28.2166C281.154 27.4245 281.302 26.7318 281.597 26.1385C281.892 25.5452 282.306 25.0845 282.84 24.7564C283.373 24.4283 283.998 24.2642 284.714 24.2642C285.43 24.2642 286.055 24.4283 286.588 24.7564C287.122 25.0845 287.536 25.5452 287.831 26.1385C288.126 26.7318 288.274 27.4245 288.274 28.2166C288.274 29.0054 288.126 29.6948 287.831 30.2848C287.536 30.8748 287.122 31.3338 286.588 31.6619C286.055 31.9901 285.43 32.1541 284.714 32.1541ZM284.719 30.9062C285.183 30.9062 285.567 30.7836 285.872 30.5384C286.177 30.2931 286.403 29.9666 286.548 29.5589C286.698 29.1513 286.772 28.7022 286.772 28.2116C286.772 27.7244 286.698 27.277 286.548 26.8693C286.403 26.4583 286.177 26.1286 285.872 25.88C285.567 25.6314 285.183 25.5071 284.719 25.5071C284.252 25.5071 283.864 25.6314 283.556 25.88C283.251 26.1286 283.024 26.4583 282.874 26.8693C282.729 27.277 282.656 27.7244 282.656 28.2116C282.656 28.7022 282.729 29.1513 282.874 29.5589C283.024 29.9666 283.251 30.2931 283.556 30.5384C283.864 30.7836 284.252 30.9062 284.719 30.9062ZM289.933 32V24.3636H291.37V25.5767H291.449C291.588 25.1657 291.834 24.8426 292.185 24.6072C292.54 24.3686 292.941 24.2493 293.388 24.2493C293.481 24.2493 293.59 24.2526 293.716 24.2592C293.846 24.2659 293.947 24.2741 294.02 24.2841V25.706C293.96 25.6894 293.854 25.6712 293.701 25.6513C293.549 25.6281 293.396 25.6165 293.244 25.6165C292.893 25.6165 292.579 25.6911 292.304 25.8402C292.033 25.986 291.817 26.1899 291.658 26.4517C291.499 26.7102 291.419 27.0052 291.419 27.3366V32H289.933ZM296.673 29.4098L296.663 27.5952H296.922L299.964 24.3636H301.744L298.274 28.0426H298.04L296.673 29.4098ZM295.306 32V21.8182H296.792V32H295.306ZM300.128 32L297.394 28.3707L298.418 27.3317L301.953 32H300.128Z" fill="white"/>
<path d="M110.5 12.5V40.5" stroke="white" stroke-opacity="0.1" stroke-linecap="square"/>
<path fill-rule="evenodd" clip-rule="evenodd" d="M27 22.25C27 22.4489 26.921 22.6397 26.7803 22.7803C26.6397 22.921 26.4489 23 26.25 23C26.0511 23 25.8603 22.921 25.7197 22.7803C25.579 22.6397 25.5 22.4489 25.5 22.25C25.5 22.0511 25.579 21.8603 25.7197 21.7197C25.8603 21.579 26.0511 21.5 26.25 21.5C26.4489 21.5 26.6397 21.579 26.7803 21.7197C26.921 21.8603 27 22.0511 27 22.25V22.25ZM27 24.372C27.5004 24.1951 27.9222 23.8469 28.1907 23.3891C28.4593 22.9313 28.5574 22.3933 28.4676 21.8702C28.3778 21.3471 28.1061 20.8725 27.7002 20.5304C27.2944 20.1883 26.7808 20.0007 26.25 20.0007C25.7192 20.0007 25.2056 20.1883 24.7998 20.5304C24.394 20.8725 24.1222 21.3471 24.0324 21.8702C23.9427 22.3933 24.0407 22.9313 24.3093 23.3891C24.5778 23.8469 24.9996 24.1951 25.5 24.372V25.25C25.5 25.8467 25.7371 26.419 26.159 26.841C26.581 27.2629 27.1533 27.5 27.75 27.5H29.25V29.628C28.7493 29.8049 28.3273 30.1532 28.0586 30.6112C27.7898 31.0692 27.6916 31.6075 27.7814 32.1308C27.8711 32.6542 28.1431 33.129 28.549 33.4713C28.955 33.8136 29.469 34.0014 30 34.0014C30.531 34.0014 31.045 33.8136 31.451 33.4713C31.857 33.129 32.1289 32.6542 32.2186 32.1308C32.3084 31.6075 32.2102 31.0692 31.9415 30.6112C31.6727 30.1532 31.2507 29.8049 30.75 29.628V27.5H32.25C32.8467 27.5 33.419 27.2629 33.841 26.841C34.263 26.419 34.5 25.8467 34.5 25.25V24.372C35.0004 24.1951 35.4222 23.8469 35.6907 23.3891C35.9593 22.9313 36.0574 22.3933 35.9676 21.8702C35.8778 21.3471 35.6061 20.8725 35.2002 20.5304C34.7944 20.1883 34.2808 20.0007 33.75 20.0007C33.2192 20.0007 32.7056 20.1883 32.2998 20.5304C31.894 20.8725 31.6222 21.3471 31.5324 21.8702C31.4427 22.3933 31.5407 22.9313 31.8093 23.3891C32.0778 23.8469 32.4996 24.1951 33 24.372V25.25C33 25.4489 32.921 25.6397 32.7803 25.7803C32.6397 25.921 32.4489 26 32.25 26H27.75C27.5511 26 27.3603 25.921 27.2197 25.7803C27.079 25.6397 27 25.4489 27 25.25V24.372ZM30.75 31.75C30.75 31.9489 30.671 32.1397 30.5303 32.2803C30.3897 32.421 30.1989 32.5 30 32.5C29.8011 32.5 29.6103 32.421 29.4697 32.2803C29.329 32.1397 29.25 31.9489 29.25 31.75C29.25 31.5511 29.329 31.3603 29.4697 31.2197C29.6103 31.079 29.8011 31 30 31C30.1989 31 30.3897 31.079 30.5303 31.2197C30.671 31.3603 30.75 31.5511 30.75 31.75ZM33.75 23C33.9489 23 34.1397 22.921 34.2803 22.7803C34.421 22.6397 34.5 22.4489 34.5 22.25C34.5 22.0511 34.421 21.8603 34.2803 21.7197C34.1397 21.579 33.9489 21.5 33.75 21.5C33.5511 21.5 33.3603 21.579 33.2197 21.7197C33.079 21.8603 33 22.0511 33 22.25C33 22.4489 33.079 22.6397 33.2197 22.7803C33.3603 22.921 33.5511 23 33.75 23Z" fill="#D7D7D7"/>
<path d="M46.1186 32V21.8182H52.4325V23.1406H47.6548V26.2429H51.9801V27.5604H47.6548V32H46.1186ZM56.8585 32.1541C56.1426 32.1541 55.5178 31.9901 54.9842 31.6619C54.4506 31.3338 54.0363 30.8748 53.7413 30.2848C53.4463 29.6948 53.2988 29.0054 53.2988 28.2166C53.2988 27.4245 53.4463 26.7318 53.7413 26.1385C54.0363 25.5452 54.4506 25.0845 54.9842 24.7564C55.5178 24.4283 56.1426 24.2642 56.8585 24.2642C57.5744 24.2642 58.1992 24.4283 58.7328 24.7564C59.2664 25.0845 59.6807 25.5452 59.9757 26.1385C60.2707 26.7318 60.4181 27.4245 60.4181 28.2166C60.4181 29.0054 60.2707 29.6948 59.9757 30.2848C59.6807 30.8748 59.2664 31.3338 58.7328 31.6619C58.1992 31.9901 57.5744 32.1541 56.8585 32.1541ZM56.8635 30.9062C57.3275 30.9062 57.7119 30.7836 58.0169 30.5384C58.3218 30.2931 58.5472 29.9666 58.693 29.5589C58.8422 29.1513 58.9167 28.7022 58.9167 28.2116C58.9167 27.7244 58.8422 27.277 58.693 26.8693C58.5472 26.4583 58.3218 26.1286 58.0169 25.88C57.7119 25.6314 57.3275 25.5071 56.8635 25.5071C56.3961 25.5071 56.0083 25.6314 55.7001 25.88C55.3952 26.1286 55.1681 26.4583 55.019 26.8693C54.8732 27.277 54.8002 27.7244 54.8002 28.2116C54.8002 28.7022 54.8732 29.1513 55.019 29.5589C55.1681 29.9666 55.3952 30.2931 55.7001 30.5384C56.0083 30.7836 56.3961 30.9062 56.8635 30.9062ZM62.0774 32V24.3636H63.5142V25.5767H63.5938C63.733 25.1657 63.9782 24.8426 64.3295 24.6072C64.6842 24.3686 65.0852 24.2493 65.5327 24.2493C65.6255 24.2493 65.7348 24.2526 65.8608 24.2592C65.9901 24.2659 66.0911 24.2741 66.1641 24.2841V25.706C66.1044 25.6894 65.9983 25.6712 65.8459 25.6513C65.6934 25.6281 65.541 25.6165 65.3885 25.6165C65.0372 25.6165 64.724 25.6911 64.4489 25.8402C64.1771 25.986 63.9616 26.1899 63.8026 26.4517C63.6435 26.7102 63.5639 27.0052 63.5639 27.3366V32H62.0774ZM68.8176 29.4098L68.8077 27.5952H69.0662L72.1088 24.3636H73.8887L70.4185 28.0426H70.1848L68.8176 29.4098ZM67.4505 32V21.8182H68.937V32H67.4505ZM72.2729 32L69.5385 28.3707L70.5627 27.3317L74.0975 32H72.2729Z" fill="white"/>
<circle cx="89.5" cy="26.5" r="8.5" fill="#1B1B1B"/>
<path d="M87.1463 30V29.0483L89.6712 26.5732C89.9126 26.3293 90.1139 26.1127 90.2749 25.9233C90.4358 25.7339 90.5566 25.5504 90.6371 25.3729C90.7176 25.1953 90.7578 25.0059 90.7578 24.8047C90.7578 24.575 90.7057 24.3786 90.6016 24.2152C90.4974 24.0495 90.3542 23.9216 90.1719 23.8317C89.9896 23.7417 89.7824 23.6967 89.5504 23.6967C89.3113 23.6967 89.1018 23.7464 88.9219 23.8459C88.742 23.9429 88.6023 24.0814 88.5028 24.2614C88.4058 24.4413 88.3572 24.6555 88.3572 24.9041H87.1037C87.1037 24.4425 87.209 24.0412 87.4197 23.7003C87.6304 23.3594 87.9205 23.0954 88.2898 22.9084C88.6615 22.7214 89.0876 22.6278 89.5682 22.6278C90.0559 22.6278 90.4844 22.719 90.8537 22.9013C91.223 23.0836 91.5095 23.3333 91.7131 23.6506C91.919 23.9678 92.022 24.33 92.022 24.7372C92.022 25.0095 91.9699 25.277 91.8658 25.5398C91.7616 25.8026 91.5781 26.0937 91.3153 26.4134C91.0549 26.733 90.6892 27.12 90.218 27.5746L88.9645 28.8494V28.8991H92.1321V30H87.1463Z" fill="white"/>
<path d="M125.5 30L129.397 25.5H121.603L125.5 30Z" fill="#D7D7D7"/>
<g filter="url(#filter0_d_789_1308)">
<path fill-rule="evenodd" clip-rule="evenodd" d="M77.885 42.5523C78.0353 42.6877 78.139 42.785 78.4597 43.0896C78.7738 43.3879 78.9256 43.5288 79.0645 43.6468C79.1224 43.6956 79.1718 43.826 79.1914 44.0199C79.2075 44.1795 79.2019 44.3575 79.1824 44.529C79.1756 44.5883 79.1691 44.631 79.1654 44.6514C79.1235 44.8802 79.2979 45.0916 79.5305 45.0939C79.7398 45.096 79.901 45.0986 80.3279 45.1062C80.4347 45.1081 80.4347 45.1081 80.5418 45.11C81.7021 45.13 82.2947 45.1245 82.72 45.071C83.1747 45.0138 83.6429 44.4648 84.0476 43.7759C84.3905 44.3855 84.8662 44.9808 85.3466 45.0582C85.4992 45.0825 85.6838 45.0901 85.8978 45.0852C86.0573 45.0815 86.2261 45.071 86.3965 45.0558C86.525 45.0443 86.6273 45.0327 86.6885 45.0248C86.9144 44.9955 87.0622 44.7732 87.0018 44.5536C86.9888 44.5061 86.9679 44.4191 86.9467 44.3095C86.9222 44.1824 86.9045 44.0583 86.8965 43.9452C86.8914 43.8736 86.8904 43.8087 86.8936 43.7526C86.8993 43.6548 86.901 43.6 86.9038 43.4735C86.9048 43.4264 86.9048 43.4264 86.9062 43.3852C86.9115 43.2503 86.9296 43.1223 86.9883 42.843C87.0134 42.7218 87.1355 42.4898 87.3278 42.2028C87.3851 42.1173 87.4477 42.028 87.5148 41.9358C87.642 41.761 87.7789 41.5844 87.9159 41.4154C87.9979 41.3141 88.0614 41.2384 88.0967 41.1973C88.3929 40.7729 88.7088 40.0781 88.8248 39.6719C88.9362 39.2815 89.0254 38.5626 89.0801 37.8559C89.1101 37.455 89.1213 37.1318 89.1213 36.6249C89.1213 36.536 89.1213 36.536 89.1215 36.4626C89.1217 36.3423 89.1218 36.2968 89.1214 36.2406C89.1203 36.087 89.1158 35.9348 89.101 35.5466C89.0691 34.733 88.6232 34.2069 87.9661 34.1054C87.4071 34.0191 86.7267 34.4834 86.7267 34.4834C86.7267 34.4834 86.5753 33.9606 86.473 33.7992C86.3068 33.5398 85.8788 33.2094 85.5517 33.145C85.2152 33.0796 84.8163 33.0869 84.4499 33.1517C84.1291 33.2091 83.8096 33.4955 83.6248 33.8044C83.4925 34.0248 83.6169 33.7927 83.4846 33.5648C83.3016 33.2507 82.8753 32.9695 82.4694 32.8865C82.1254 32.8154 81.7314 32.8425 81.3714 32.9495C80.9084 33.0878 80.8347 33.4402 80.8163 33.3393C80.7547 33.0011 80.749 33.0233 80.7106 32.782C80.568 31.8867 80.4085 31.2673 80.1665 30.7267C80.1805 30.7578 80.0779 30.5246 80.0406 30.4442C79.976 30.3049 79.9115 30.1789 79.8406 30.0576C79.6221 29.684 79.3717 29.4042 79.0575 29.2453C78.5119 28.969 77.6941 29.1035 77.3065 29.556C76.9215 30.0056 76.8573 30.7574 76.9543 31.6878C76.9913 32.049 77.1211 32.7085 77.2387 33.1959C77.2803 33.3651 77.3168 33.5194 77.3836 33.8044C77.3951 33.8529 77.3951 33.8529 77.4067 33.9014C77.4585 34.1171 77.5038 34.2946 77.558 34.4894C77.5523 34.4691 77.655 34.8335 77.6768 34.9141C77.6841 34.941 77.6841 34.941 77.6913 34.9681C77.7322 35.1218 77.7721 35.2876 77.8344 35.5644C77.8686 35.7165 77.9019 35.8791 77.9344 36.0514C78.0233 36.5213 78.0237 36.4234 77.9382 36.3232C77.8791 36.254 77.8236 36.1911 77.7699 36.1332C77.6701 36.0255 77.5784 35.9364 77.4913 35.8654C76.8569 35.3463 76.4682 35.117 75.9345 35.0666C75.0591 34.9825 74.2283 35.6009 74.1034 36.4354C74.0266 36.9471 74.0513 37.1826 74.288 37.6348C74.4183 37.8792 74.6386 38.1743 75.0497 38.6822C75.0749 38.7133 75.0749 38.7133 75.1001 38.7443C75.6047 39.3661 75.6597 39.4352 75.7797 39.609C76.104 40.0797 76.8936 41.4311 77.0372 41.6126L77.885 42.5523Z" fill="black"/>
<path fill-rule="evenodd" clip-rule="evenodd" d="M75.6828 38.2717C75.658 38.241 75.658 38.241 75.6331 38.2103C75.2558 37.7442 75.049 37.4671 74.9516 37.2845C74.7988 36.9925 74.7904 36.9134 74.8455 36.5466C74.9102 36.1141 75.3773 35.7665 75.8638 35.8132C76.2004 35.845 76.4945 36.0185 77.0172 36.4462C77.0738 36.4923 77.142 36.5586 77.2201 36.6429C77.2663 36.6927 77.3152 36.7481 77.3681 36.8101C77.4475 36.9031 77.7151 37.2306 77.6757 37.1829C77.7338 37.2528 77.7754 37.307 77.8229 37.3734C77.917 37.5077 77.97 37.5823 78.0417 37.6779C78.0081 37.633 78.2564 37.9764 78.309 38.0266C78.5876 38.2925 78.991 38.0685 78.9658 37.7141C78.9615 37.6549 78.9476 37.591 78.9186 37.4794C78.8037 36.6602 78.7635 36.3973 78.6718 35.912C78.6377 35.7318 78.6027 35.561 78.5666 35.3998C78.5022 35.1143 78.4602 34.9398 78.4166 34.7756C78.4089 34.7465 78.4089 34.7465 78.4011 34.7178C78.3781 34.6329 78.2739 34.2631 78.2808 34.2879C78.2295 34.1032 78.1863 33.9341 78.1365 33.7265C78.1252 33.6792 78.1252 33.6792 78.1139 33.6316C78.0474 33.3481 78.01 33.1899 77.9678 33.0184C77.8578 32.5627 77.7336 31.9312 77.7007 31.6107C77.6252 30.8865 77.6773 30.2765 77.8765 30.0438C78.0321 29.8622 78.4729 29.7897 78.7193 29.9145C78.8803 29.996 79.0413 30.1758 79.1936 30.4362C79.2512 30.5348 79.3053 30.6405 79.3607 30.7598C79.3942 30.8321 79.4936 31.0582 79.4824 31.0332C79.6927 31.5031 79.8372 32.0641 79.9703 32.8999C80.0097 33.1476 80.0585 33.4281 80.121 33.7714C80.1396 33.8732 80.1396 33.8732 80.1582 33.9745C80.4596 35.6099 80.4375 35.4859 80.4419 35.6164C80.4577 36.0922 81.16 36.1033 81.1909 35.6283C81.2007 35.4776 81.1972 35.3431 81.1798 34.9568C81.1773 34.9021 81.1773 34.9021 81.175 34.8477C81.1598 34.4918 81.1606 34.287 81.1817 34.1706C81.22 33.9584 81.4106 33.7207 81.586 33.6682C81.8325 33.595 82.1024 33.5764 82.3187 33.6211C82.5258 33.6635 82.7674 33.8229 82.8367 33.9418C82.9202 34.0858 82.9919 34.3051 83.0468 34.5771C83.0911 34.7966 83.1216 35.032 83.143 35.2833C83.1497 35.3615 83.154 35.4219 83.1607 35.5219C83.1636 35.5637 83.1636 35.5637 83.1664 35.5982C83.168 35.6155 83.168 35.6155 83.1719 35.6429C83.175 35.6621 83.175 35.6621 83.1893 35.7106C83.1966 35.8485 83.1966 35.8485 83.7501 35.8996C83.9154 35.6997 83.9154 35.6997 83.9109 35.6647C83.9379 35.5463 83.9545 35.4144 83.9781 35.1666C83.9932 35.0054 84.0008 34.9262 84.0097 34.8441C84.0465 34.5039 84.0932 34.2878 84.1502 34.1929C84.2209 34.0747 84.47 33.91 84.5817 33.8901C84.8623 33.8404 85.1703 33.8349 85.4082 33.881C85.5159 33.9022 85.7787 34.1052 85.8409 34.2023C85.9687 34.4038 86.0929 35.0536 86.1629 35.6984C86.1518 35.7407 86.1518 35.7407 86.3236 35.986C86.9139 35.9187 86.9139 35.9187 86.8973 35.8121C86.9129 35.7741 86.9253 35.7302 86.9428 35.6619C86.985 35.5022 87.013 35.4095 87.0547 35.3056C87.0835 35.2337 87.1139 35.1722 87.145 35.1233C87.2657 34.9334 87.5781 34.8043 87.8521 34.8467C88.1463 34.8921 88.3338 35.1133 88.352 35.5756C88.3665 35.956 88.3708 36.1023 88.3718 36.2458C88.3722 36.2988 88.3722 36.3413 88.3719 36.4609C88.3717 36.5349 88.3717 36.5349 88.3717 36.6249C88.3717 37.1138 88.3612 37.4185 88.3327 37.7989C88.2821 38.4522 88.1966 39.1417 88.1041 39.466C88.0096 39.7966 87.7276 40.4169 87.5043 40.7395C87.4885 40.7548 87.4205 40.836 87.3336 40.9432C87.189 41.1216 87.0444 41.3082 86.9088 41.4945C86.8363 41.5942 86.7681 41.6913 86.7051 41.7853C86.4615 42.1491 86.3051 42.4461 86.2545 42.6896C86.1881 43.006 86.1643 43.1739 86.1572 43.3558C86.1555 43.4073 86.1555 43.4073 86.1544 43.4573C86.1518 43.5753 86.1503 43.623 86.1453 43.7093C86.1401 43.8 86.1415 43.8965 86.1488 43.9985C86.1592 44.1444 86.1488 44.3439 86.1488 44.3439C86.1488 44.3439 86.0222 44.3321 85.8809 44.3354C85.7084 44.3393 85.565 44.3334 85.4658 44.3176C85.3228 44.2946 84.9365 43.8112 84.7387 43.4346C84.4364 42.8581 83.7026 42.8861 83.4018 43.3951C83.1305 43.857 82.7422 44.3124 82.6269 44.3268C82.2523 44.374 81.6722 44.3793 80.5551 44.3601C80.4483 44.3582 80.4483 44.3582 80.3416 44.3563C79.9127 44.3487 79.9292 44.4211 79.938 44.3439C79.9631 44.1236 79.9602 44.1649 79.938 43.9446C79.9007 43.5753 79.7868 43.2741 79.5492 43.0741C79.4264 42.9698 79.2794 42.8334 78.9842 42.553C78.647 42.2326 78.5414 42.1337 78.4112 42.0193L77.6099 41.1285C77.522 41.0161 76.7499 39.6946 76.3975 39.1831C76.2603 38.9846 76.2091 38.9201 75.6828 38.2717ZM85.1916 38.2754V41.7344C85.1916 42.2344 85.9416 42.2344 85.9416 41.7344V38.2754C85.9416 37.7754 85.1916 37.7754 85.1916 38.2754ZM83.16 38.2748L83.176 41.7478C83.1783 42.2478 83.9283 42.2444 83.926 41.7444L83.91 38.2714C83.9077 37.7714 83.1577 37.7749 83.16 38.2748ZM81.9509 41.7284L81.9299 38.3024C81.9268 37.8024 81.1768 37.807 81.1799 38.307L81.2009 41.733C81.2039 42.233 81.9539 42.2284 81.9509 41.7284Z" fill="white"/>
</g>
<path d="M153.5 26.5H192.5M192.5 26.5L186.5 20.5M192.5 26.5L186.5 32.5" stroke="white" stroke-opacity="0.3" stroke-linecap="square"/>
<defs>
<filter id="filter0_d_789_1308" x="72.0645" y="28.1022" width="19.0576" height="20.0185" filterUnits="userSpaceOnUse" color-interpolation-filters="sRGB">
<feFlood flood-opacity="0" result="BackgroundImageFix"/>
<feColorMatrix in="SourceAlpha" type="matrix" values="0 0 0 0 0 0 0 0 0 0 0 0 0 0 0 0 0 0 127 0" result="hardAlpha"/>
<feOffset dy="1"/>
<feGaussianBlur stdDeviation="1"/>
<feColorMatrix type="matrix" values="0 0 0 0 0 0 0 0 0 0 0 0 0 0 0 0 0 0 0.298656 0"/>
<feBlend mode="normal" in2="BackgroundImageFix" result="effect1_dropShadow_789_1308"/>
<feBlend mode="normal" in="SourceGraphic" in2="effect1_dropShadow_789_1308" result="shape"/>
</filter>
</defs>
</svg>
